<?xml version="1.0" encoding="utf-8"?>
<!-- Generator: Adobe Illustrator 23.0.1, SVG Export Plug-In . SVG Version: 6.00 Build 0)  -->
<svg version="1.1" id="Layer_1" xmlns="http://www.w3.org/2000/svg" xmlns:xlink="http://www.w3.org/1999/xlink" x="0px" y="0px"
	 viewBox="0 0 400 398" style="enable-background:new 0 0 400 398;" xml:space="preserve">
<style type="text/css">
	.st0{fill:#5A5F5F;}
	.st1{fill:#9C2122;}
	.st2{fill:#18A138;}
	.st3{fill:#0091EB;}
	.st4{opacity:0.5;fill:#0091EB;}
	.st5{opacity:0.5;fill:#5A5F5F;}
</style>
<g>
	<path class="st0" d="M2.01,396.5h13.17c0.01-4.41,0.38-8.81,1.11-13.17H158.9c0.72,4.35,1.09,8.76,1.11,13.17h13.17
		c0.02-34.87-19.08-66.95-49.76-83.54l-22-11.92l18.21-9.88l-6.27-11.57l-25.77,13.96L61.82,279.6
		c-7.31-3.97-14.03-8.94-19.97-14.77h39.15v-13.17H30.79c-5.52-8.04-9.69-16.94-12.32-26.33h26.68v-13.17H15.87
		c-1.13-8.76-0.89-17.64,0.7-26.33h97.35v-13.17h-94c3.26-9.52,8.09-18.42,14.3-26.33H141c2.48,3.14,4.75,6.44,6.79,9.88l11.36-6.65
		c-8.88-15.14-21.51-27.74-36.66-36.6l-21.82-12.71l25.38-14.81c29.14-17.08,47.07-48.29,47.14-82.07V1.5h-13.17v1.88
		c-0.01,3.78-0.29,7.55-0.82,11.29H16c-0.54-3.74-0.81-7.51-0.82-11.29V1.5H2.01v1.88c0.07,33.77,18,64.99,47.14,82.07l25.38,14.81
		l-21.79,12.71c-48.77,28.46-65.24,91.06-36.79,139.83c9.44,16.18,23.14,29.45,39.61,38.37l18.21,9.88l-22,11.92
		C21.09,329.55,1.99,361.63,2.01,396.5z M156.06,27.83c-2.99,9.55-7.7,18.48-13.9,26.33H33c-6.19-7.86-10.89-16.78-13.88-26.33
		H156.06z M55.77,74.07c-3.4-2-6.64-4.25-9.71-6.73h83.06c-3.07,2.48-6.31,4.73-9.71,6.73L87.59,92.63L55.77,74.07z M59.37,124.34
		l28.22-16.46l28.22,16.46c4.33,2.59,8.44,5.55,12.27,8.83H46.93C50.82,129.87,54.98,126.92,59.37,124.34z M155.64,370.17H19.54
		c3.28-9.63,8.33-18.56,14.88-26.33h106.35C147.32,351.61,152.36,360.54,155.64,370.17z M87.59,308.53l29.56,16.01
		c3.35,1.82,6.57,3.86,9.63,6.13H48.4c3.06-2.26,6.28-4.31,9.63-6.13L87.59,308.53z"/>
	<path class="st1" d="M324.59,67.33V80.5h44.69c0.91,5.1,1.38,10.27,1.4,15.44c-0.02,3.64-0.22,7.27-0.63,10.89h-78.37V120h75.95
		c-0.91,3.61-2.08,7.16-3.5,10.61c-2.34,5.51-5.21,10.77-8.56,15.73h-37.56v13.17h26.71c-5.84,5.85-12.49,10.82-19.75,14.77
		l6.29,11.57c32.86-17.87,53.11-52.49,52.59-89.89c0-18.17-4.85-36.01-14.03-51.69l-11.36,6.65c3.04,5.21,5.55,10.71,7.49,16.43
		H324.59z"/>
	<path class="st2" d="M350.77,218.75c-12.06,0.02-23.63,4.74-32.26,13.17h-47.07l-8.66-112.58c-2.68-33-30.17-58.45-63.27-58.59
		c-3.64,0-6.59,2.94-6.59,6.58c0,0.5,0.06,1,0.17,1.49l37.14,160.9l-160.9-37.14c-3.54-0.82-7.08,1.39-7.9,4.93
		c-0.11,0.49-0.17,0.99-0.17,1.49c0.14,33.1,25.6,60.59,58.59,63.27l112.58,8.66v47.29c-17.76,18.2-17.4,47.35,0.8,65.11
		c18.2,17.76,47.35,17.4,65.11-0.8c17.76-18.2,17.4-47.35-0.8-65.11c-6.98-6.81-15.95-11.23-25.61-12.62v-0.31
		c0.02-18.17,14.75-32.89,32.92-32.92h0.15c3.64,25.28,27.08,42.82,52.35,39.19c25.28-3.64,42.82-27.08,39.19-52.35
		C393.26,235.65,373.76,218.75,350.77,218.75z M350.77,298.07c-18.26-0.02-33.05-14.82-33.07-33.07c0-3.64-2.95-6.58-6.58-6.58
		h-6.27c-25.44,0.03-46.05,20.64-46.08,46.08v6.43c0,3.64,2.95,6.58,6.58,6.58c18.24-0.06,33.07,14.68,33.13,32.92
		c0.06,18.24-14.68,33.07-32.92,33.13c-18.24,0.06-33.07-14.68-33.13-32.92c-0.03-9.42,3.96-18.41,10.98-24.7
		c1.39-1.25,2.19-3.03,2.19-4.9v-56.2c0.01-3.45-2.64-6.32-6.08-6.58l-118.66-9.1c-22.96-1.87-41.75-19.02-45.71-41.71l162.38,37.48
		c3.54,0.82,7.08-1.38,7.9-4.93c0.23-0.98,0.23-2,0-2.97L207.95,74.63c22.69,3.96,39.83,22.76,41.71,45.71l9.1,118.66
		c0.27,3.44,3.14,6.09,6.58,6.08h55.96c1.87,0,3.64-0.79,4.89-2.18c12.21-13.57,33.11-14.68,46.68-2.47
		c13.57,12.21,14.68,33.11,2.47,46.68c-6.27,6.97-15.21,10.95-24.59,10.95L350.77,298.07z"/>
	
		<rect x="252.17" y="248.94" transform="matrix(0.7071 -0.7071 0.7071 0.7071 -106.8222 258.6084)" class="st2" width="13.17" height="18.62"/>
	<path class="st2" d="M350.93,245.08c-10.91,0-19.75,8.84-19.75,19.75c0,10.91,8.84,19.75,19.75,19.75
		c10.91,0,19.75-8.84,19.75-19.75C370.68,253.93,361.83,245.08,350.93,245.08z M350.93,271.42c-3.64,0-6.58-2.95-6.58-6.58
		c0-3.64,2.95-6.58,6.58-6.58c3.64,0,6.58,2.95,6.58,6.58C357.51,268.47,354.56,271.42,350.93,271.42z"/>
	<path class="st2" d="M245.59,350.42c0,10.91,8.84,19.75,19.75,19.75s19.75-8.84,19.75-19.75c0-10.91-8.84-19.75-19.75-19.75l0,0
		C254.43,330.67,245.59,339.51,245.59,350.42z M265.34,343.83c3.64,0,6.58,2.95,6.58,6.58c0,3.64-2.95,6.58-6.58,6.58
		s-6.58-2.95-6.58-6.58C258.76,346.78,261.71,343.83,265.34,343.83z"/>
</g>
<g>
	<g>
		<path d="M-444.69,702.82l-39.37,93.48c-0.65,1.53-0.47,3.29,0.45,4.67c0.92,1.39,2.47,2.22,4.14,2.22h278.25
			c1.32,0,2.58-0.52,3.52-1.45c0.93-0.93,1.45-2.2,1.45-3.52V697.95l8.82-10.88c1.22-1.49,1.45-3.54,0.63-5.27
			c-0.82-1.73-2.57-2.83-4.48-2.83h-81.66c-6.77-5.69-14.43-10.22-22.68-13.42V559.72h9.94v-9.94h-74.53v9.94h9.94v105.76
			c-21.35,7.6-38.11,24.47-45.59,45.86l-4.1-8.65v-68.44h9.94v-9.94h-64.59v9.94h9.94L-444.69,702.82z M-205.07,693.05
			c-0.72,0.89-1.12,2-1.12,3.13v97.06h-74.53V688.9h79L-205.07,693.05z M-343.82,673.77c2.07-0.66,3.48-2.57,3.48-4.75V559.72h34.78
			v109.31c0,2.14,1.37,4.02,3.38,4.71c4.75,1.6,9.3,3.7,13.61,6.26c-1.29,0.91-2.07,2.37-2.09,3.94v39.75h-64.59v9.94h64.59v59.62
			h-66.42l-32.1-67.76c1.95-12.01,7.23-23.23,15.25-32.37C-365.89,683.97-355.47,677.26-343.82,673.77L-343.82,673.77z
			 M-409.9,634.25v69.56c0.01,0.73,0.17,1.47,0.5,2.12l17.8,37.63h-8.36v9.94h13.07l18.83,39.75h-103.92l16.74-39.75h25.46v-9.94
			h-21.28l15.92-37.83c0.25-0.61,0.39-1.27,0.39-1.93v-69.56L-409.9,634.25z"/>
		<path d="M-260.84,773.38h34.78v9.94h-34.78V773.38z"/>
		<path d="M-250.91,753.5H-236v9.94h-14.91V753.5z"/>
		<path d="M-260.84,733.62h34.78v9.94h-34.78V733.62z"/>
		<path d="M-250.91,713.75H-236v9.94h-14.91V713.75z"/>
		<path d="M-343.46,698.5l-3.7-9.23v-0.01c-8.35,3.35-15.65,8.87-21.14,15.99c-5.49,7.12-8.98,15.59-10.1,24.51l9.86,1.23
			C-366.71,716.4-357.11,703.95-343.46,698.5L-343.46,698.5z"/>
		<path d="M-419.84,743.56h9.94v9.94h-9.94V743.56z"/>
		<path d="M-342.83,778.34c3.29,0,6.46-1.3,8.78-3.64c2.34-2.32,3.64-5.49,3.64-8.78h-9.94c0,1.01-0.61,1.91-1.53,2.3
			c-0.93,0.39-2,0.17-2.71-0.55c-0.72-0.71-0.93-1.78-0.55-2.71c0.39-0.92,1.29-1.53,2.3-1.53v-9.94c-6.86,0-12.42,5.57-12.42,12.42
			S-349.68,778.34-342.83,778.34L-342.83,778.34z"/>
		<path d="M-472.01,529.91c3.29,0,6.46-1.3,8.78-3.64c2.34-2.32,3.64-5.49,3.64-8.78h-9.94c0,1.01-0.61,1.91-1.53,2.3
			c-0.93,0.39-2,0.17-2.71-0.55c-0.72-0.71-0.93-1.78-0.55-2.71c0.39-0.92,1.29-1.53,2.3-1.53v-9.94c-6.86,0-12.42,5.57-12.42,12.42
			C-484.44,524.34-478.87,529.91-472.01,529.91L-472.01,529.91z"/>
		<path d="M-305.56,524.94h9.94v-4.97h4.97v-9.94h-4.97v-4.97h-9.94v4.97h-4.97v9.94h4.97V524.94z"/>
		<path d="M-426.26,598.01l3.94-3.94l3.94,3.94l7.03-7.03l-3.94-3.94l3.94-3.94l-7.03-7.03l-3.94,3.94l-3.94-3.94l-7.03,7.03
			l3.94,3.94l-3.94,3.94L-426.26,598.01z"/>
		<path d="M-202.67,617.89l3.94-3.94l3.94,3.94l7.03-7.03l-3.94-3.94l3.94-3.94l-7.03-7.03l-3.94,3.94l-3.94-3.94l-7.03,7.03
			l3.94,3.94l-3.94,3.94L-202.67,617.89z"/>
		<path d="M-385.06,510.03c0,6.62-9.94,6.62-9.94,0C-395,503.41-385.06,503.41-385.06,510.03"/>
		<path d="M-211.16,639.22c0,6.62-9.94,6.62-9.94,0S-211.16,632.6-211.16,639.22"/>
		<path d="M-395,773.38c0,6.62-9.94,6.62-9.94,0S-395,766.75-395,773.38"/>
		<path d="M-315.5,748.53c0,6.62-9.94,6.62-9.94,0C-325.44,741.91-315.5,741.91-315.5,748.53"/>
	</g>
</g>
<g>
	<path d="M-36.72,560.91c-11.33,0-20.62,9.29-20.62,20.62s9.29,20.62,20.62,20.62s20.62-9.29,20.62-20.62
		S-25.39,560.91-36.72,560.91z M-36.72,571.22c5.76,0,10.31,4.55,10.31,10.31s-4.55,10.31-10.31,10.31s-10.31-4.55-10.31-10.31
		S-42.48,571.22-36.72,571.22z M40.63,586.69c-8.48,0-15.47,6.99-15.47,15.47s6.99,15.47,15.47,15.47s15.47-6.99,15.47-15.47
		S49.11,586.69,40.63,586.69z M40.63,597c2.91,0,5.16,2.24,5.16,5.16s-2.24,5.16-5.16,5.16s-5.16-2.24-5.16-5.16
		S37.72,597,40.63,597z M-21.27,622.78c-8.48,0-15.47,6.99-15.47,15.47s6.99,15.47,15.47,15.47h5.16v15.03
		c-0.03,0.26-0.03,0.5,0,0.76V710c-0.03,0.26-0.03,0.5,0,0.76v5.3L-85.9,819.29c-2.47,4.29-4.68,10.51-4.68,14.89
		c0,5.83,2.02,11.16,5.32,15.49c5.01,6.12,12.34,10.31,20.65,10.31H94.7c9.64,0,16.9-6.36,20.23-10.31
		c3.29-4.33,5.34-9.67,5.34-15.49c0-5.44-2.28-10.71-4.69-14.89L45.76,715.92v-62.2h5.16c8.48,0,15.47-6.99,15.47-15.47
		s-6.99-15.47-15.47-15.47L-21.27,622.78z M-21.3,633.09h72.21c2.95,0,5.16,2.22,5.16,5.16s-2.2,5.16-5.16,5.16H-21.3
		c-2.95,0-5.16-2.22-5.16-5.16S-24.25,633.09-21.3,633.09z M-5.8,653.72h41.25v63.81c0,1.03,0.3,2.02,0.86,2.87l45.52,67.38H21.02
		h0.01c-1.38-0.03-2.72,0.52-3.7,1.48c-0.98,0.97-1.53,2.29-1.53,3.67c0,1.38,0.55,2.69,1.53,3.67c0.98,0.97,2.32,1.5,3.7,1.48h66
		c0.54,0,1.1-0.08,1.61-0.24l17.18,25.43l1.26,2c1.8,2.55,2.86,5.58,2.86,8.91c0,8.6-6.87,15.47-15.47,15.47H-64.78
		c-8.6,0-15.47-6.87-15.47-15.47c0-3.33,1.06-6.36,2.86-8.91l1.25-2l17.02-25.2h22.4v0.01c1.38,0.03,2.71-0.52,3.7-1.48
		c0.98-0.97,1.53-2.29,1.53-3.67s-0.55-2.71-1.53-3.67c-0.99-0.97-2.32-1.5-3.7-1.48h-15.43l45.46-67.25
		c0.58-0.85,0.89-1.86,0.89-2.87v-2.05h25.72c6.97,0.1,6.97-10.42,0-10.31H-5.79v-10.31h18.73c6.97,0.1,6.97-10.42,0-10.31H-5.79
		v-10.31h25.72c6.97,0.1,6.97-10.42,0-10.31H-5.79v-10.31L-5.8,653.72z M20,746.53c-8.48,0-15.47,6.99-15.47,15.47
		s6.99,15.47,15.47,15.47s15.47-6.99,15.47-15.47S28.49,746.53,20,746.53z M20,756.84c2.91,0,5.16,2.24,5.16,5.16
		s-2.24,5.16-5.16,5.16s-5.16-2.24-5.16-5.16S17.09,756.84,20,756.84z M-5.78,787.78c-11.33,0-20.62,9.29-20.62,20.62
		s9.29,20.62,20.62,20.62s20.62-9.29,20.62-20.62S5.55,787.78-5.78,787.78z M-5.78,798.09c5.76,0,10.31,4.55,10.31,10.31
		s-4.55,10.31-10.31,10.31s-10.31-4.55-10.31-10.31S-11.54,798.09-5.78,798.09z M71.57,808.41c-8.48,0-15.47,6.99-15.47,15.47
		s6.99,15.47,15.47,15.47s15.47-6.99,15.47-15.47S80.05,808.41,71.57,808.41z M71.57,818.72c2.91,0,5.16,2.24,5.16,5.16
		s-2.24,5.16-5.16,5.16c-2.91,0-5.16-2.24-5.16-5.16S68.65,818.72,71.57,818.72z"/>
</g>
<g>
	<g>
		<path class="st0" d="M-763.83,154.35V75.63c15.64,0,28.32-12.67,28.32-28.32S-748.19,19-763.83,19h-86.08
			c-15.64,0-28.32,12.67-28.32,28.32s12.67,28.32,28.32,28.32v78.72c-22.62,7.91-42.58,21.98-57.62,40.63v-48.14
			c15.64,0,28.32-12.67,28.32-28.32s-12.67-28.32-28.32-28.32h-85.94c-15.64,0-28.32,12.67-28.32,28.32s12.67,28.32,28.32,28.32
			v76.31l-76.45,113.26c-6.14,11.11-5.93,24.63,0.57,35.55c6.51,10.9,18.32,17.52,31.01,17.4h288.81c1.13-0.02,2.25-0.3,3.26-0.85
			c29.91-15.34,52.54-41.87,62.98-73.81c10.44-31.94,7.82-66.72-7.26-96.75C-705.63,187.9-731.98,165.05-763.83,154.35
			L-763.83,154.35z M-1007.91,118.39c0-7.82,6.34-14.16,14.16-14.16h86.08c7.82,0,14.16,6.34,14.16,14.16s-6.34,14.16-14.16,14.16
			h-85.8c-3.8,0.07-7.49-1.38-10.19-4.05C-1006.39,125.84-1007.91,122.19-1007.91,118.39L-1007.91,118.39z M-864.35,47.6
			c0-7.82,6.34-14.16,14.16-14.16h86.08c7.82,0,14.16,6.34,14.16,14.16s-6.34,14.16-14.16,14.16h-85.8
			c-3.88,0.07-7.63-1.43-10.35-4.19c-2.73-2.76-4.21-6.51-4.09-10.39L-864.35,47.6z M-840.57,166.66c2.96-0.94,4.97-3.68,4.96-6.8
			V75.63h57.62v83.81c-0.02,3.11,2,5.86,4.96,6.8c20.55,6.12,38.93,17.96,53.02,34.14c14.09,16.16,23.29,36,26.55,57.18
			c-27.08,17.91-61.14,21.64-91.46,10.05c-7.45-3.22-14.55-7.15-21.24-11.75c-7.24-4.96-14.92-9.22-22.94-12.74
			c-15.38-6.39-31.78-9.95-48.42-10.48c-13.04-0.19-26,2-38.23,6.51c1.27-3.75,2.73-7.43,4.39-11.04c0.9-2.14,1.95-4.23,3.11-6.23
			c14.26-26.81,38.61-46.84,67.68-55.64L-840.57,166.66z M-980.44,229.38c0.76-1.19,1.15-2.57,1.13-3.96v-78.43h57.62v69.8
			c-0.99,1.84-1.98,3.82-2.69,5.66c-3.63,8.14-6.39,16.64-8.21,25.34c-0.94,4.3-1.65,8.65-2.12,13.02h-67.1L-980.44,229.38z
			 M-1038.35,375.21c-7.61,0.05-14.67-3.93-18.55-10.48c-3.8-6.3-4.07-14.12-0.71-20.67l46.3-68.81h75.46
			c0.04,5.45,0.41,10.88,1.13,16.28c0,1.7,0,3.4,0.85,5.1c0.85,1.7,1.27,7.22,2.27,10.76c0.99,3.54,1.13,3.82,1.7,5.66
			c0.57,1.84,2.12,6.51,3.4,9.77s1.42,3.54,2.27,5.38c0.85,1.84,3.26,6.65,5.1,9.91c1.84,3.26,1.42,2.83,2.27,4.25
			c2.74,4.48,5.77,8.78,9.06,12.88l1.56,1.84c2.88,3.47,5.96,6.78,9.2,9.91l4.11,3.68c1.7,1.56,3.4,3.11,5.24,4.67L-1038.35,375.21z
			 M-751.37,375.21H-861.8c-2.41-1.27-4.53-2.83-6.8-4.25c-2.27-1.42-3.96-2.41-5.8-3.68c-1.84-1.27-4.53-3.68-6.8-5.52
			c-2.27-1.84-3.54-2.83-5.1-4.25c-1.56-1.42-3.96-4.25-5.95-6.37s-2.97-3.11-4.39-4.81c-1.42-1.7-3.4-4.81-5.1-7.22
			c-1.7-2.41-2.55-3.4-3.68-5.24c-1.13-1.84-2.83-5.24-4.11-7.93c-1.27-2.69-1.98-3.68-2.83-5.52c-0.85-1.84-2.12-5.8-3.11-8.78
			s-1.42-3.68-1.98-5.52c-0.57-1.84-1.42-6.65-2.12-9.91c-0.71-3.26-0.85-3.4-0.99-5.1c-0.74-5.17-1.11-10.37-1.13-15.57v-6.65
			c0.27-4.03,0.74-8.05,1.42-12.03c13.08-6.85,27.71-10.21,42.47-9.77c14.88,0.46,29.57,3.63,43.32,9.34
			c7.22,3.19,14.14,7.03,20.67,11.47c7.43,5.06,15.36,9.38,23.64,12.88c32.21,12.58,68.38,9.77,98.26-7.65v2.12
			c-0.02,20.46-5.56,40.54-16.02,58.13C-718.4,350.98-733.39,365.42-751.37,375.21L-751.37,375.21z"/>
	</g>
</g>
<path class="st3" d="M-751.37,376.21H-861.8c-2.41-1.27-4.53-2.83-6.8-4.25c-2.27-1.42-3.96-2.41-5.8-3.68
	c-1.84-1.27-4.53-3.68-6.8-5.52c-2.27-1.84-3.54-2.83-5.1-4.25c-1.56-1.42-3.96-4.25-5.95-6.37s-2.97-3.11-4.39-4.81
	c-1.42-1.7-3.4-4.81-5.1-7.22c-1.7-2.41-2.55-3.4-3.68-5.24c-1.13-1.84-2.83-5.24-4.11-7.93c-1.27-2.69-1.98-3.68-2.83-5.52
	c-0.85-1.84-2.12-5.8-3.11-8.78s-1.42-3.68-1.98-5.52c-0.57-1.84-1.42-6.65-2.12-9.91c-0.71-3.26-0.85-3.4-0.99-5.1
	c-0.74-5.17-1.11-10.37-1.13-15.57v-6.65c0.27-4.03,0.74-8.05,1.42-12.03c13.08-6.85,27.71-10.21,42.47-9.77
	c14.88,0.46,29.57,3.63,43.32,9.34c7.22,3.19,14.14,7.03,20.67,11.47c7.43,5.06,15.36,9.38,23.64,12.88
	c32.21,12.58,68.38,9.77,98.26-7.65v2.12c-0.02,20.46-5.56,40.54-16.02,58.13C-718.4,351.98-733.39,366.42-751.37,376.21
	L-751.37,376.21z"/>
<path class="st4" d="M-1038.35,376.21c-7.61,0.05-14.67-3.93-18.55-10.48c-3.8-6.3-4.07-14.12-0.71-20.67l46.3-68.81h75.46
	c0.04,5.45,0.41,10.88,1.13,16.28c0,1.7,0,3.4,0.85,5.1c0.85,1.7,1.27,7.22,2.27,10.76c0.99,3.54,1.13,3.82,1.7,5.66
	c0.57,1.84,2.12,6.51,3.4,9.77s1.42,3.54,2.27,5.38c0.85,1.84,3.26,6.65,5.1,9.91c1.84,3.26,1.42,2.83,2.27,4.25
	c2.74,4.48,5.77,8.78,9.06,12.88l1.56,1.84c2.88,3.47,5.96,6.78,9.2,9.91l4.11,3.68c1.7,1.56,3.4,3.11,5.24,4.67L-1038.35,376.21z"
	/>
<path class="st0" d="M-822.47,144.68h35.15v10.04h-35.15V144.68z"/>
<path class="st5" d="M-812.43,124.59h15.06v10.04h-15.06V124.59z"/>
<path class="st0" d="M-822.47,104.51h35.15v10.04h-35.15V104.51z"/>
<path class="st5" d="M-812.43,84.42h15.06v10.04h-15.06V84.42z"/>
<path class="st0" d="M-967.99,218.45h35.15v10.04h-35.15V218.45z"/>
<path class="st5" d="M-957.95,198.36h15.06v10.04h-15.06V198.36z"/>
<path class="st0" d="M-967.99,178.28h35.15v10.04h-35.15V178.28z"/>
<path class="st5" d="M-957.95,158.19h15.06v10.04h-15.06V158.19z"/>
</svg>
