<?xml version="1.0" encoding="utf-8"?>
<!-- Generator: Adobe Illustrator 18.1.1, SVG Export Plug-In . SVG Version: 6.00 Build 0)  -->
<svg version="1.1" xmlns="http://www.w3.org/2000/svg" xmlns:xlink="http://www.w3.org/1999/xlink" x="0px" y="0px"
	 viewBox="0 0 450 60" enable-background="new 0 0 450 60" xml:space="preserve">
	<g>
		<path fill="#FFFFFF" d="M6.4,44.3c-1.8,0-3.4-0.7-4.5-1.9S0,39.6,0,37.9c0-3.5,2.9-6.4,6.4-6.4h21.9v0l15.3,0v12.8L6.4,44.3z"/>
		<path fill="#FFFFFF" d="M28.2,47.2v6.4c0,3.5-2.9,6.4-6.4,6.4c-1.8,0-3.4-0.7-4.5-1.9c-1.2-1.2-1.9-2.8-1.9-4.5v-6.4H28.2z"/>
		<path fill="#FFFFFF" d="M30.7,12.8V6.4c0-3.5,2.9-6.4,6.4-6.4c3.5,0,6.4,2.9,6.4,6.4v6.4H30.7z"/>
		<path fill="#FFFFFF" d="M15.4,15.7h37.2c3.5,0,6.4,2.9,6.4,6.4c0,3.5-2.9,6.4-6.4,6.4l-18.3,0l-18.9,0V15.7z"/>
	</g>
	<g>
		<path fill="#FFFFFF" d="M77.6,21.4h-5.1c-1,0-1.7-0.8-1.7-1.7c0-0.9,0.8-1.7,1.7-1.7h14c0.9,0,1.7,0.8,1.7,1.7
			c0,0.9-0.8,1.7-1.7,1.7h-5.2v16c0,1-0.8,1.8-1.9,1.8c-1,0-1.9-0.8-1.9-1.8V21.4z"/>
		<path fill="#FFFFFF" d="M86.4,34.5L86.4,34.5c0-3.5,2.7-5.2,6.6-5.2c1.8,0,3,0.3,4.3,0.7v-0.4c0-2.3-1.4-3.5-3.9-3.5
			c-1.4,0-2.5,0.2-3.5,0.6c-0.2,0.1-0.4,0.1-0.6,0.1c-0.8,0-1.5-0.7-1.5-1.5c0-0.7,0.5-1.2,1-1.4c1.5-0.6,3-0.9,5.1-0.9
			c2.4,0,4.2,0.6,5.3,1.8c1.2,1.1,1.7,2.8,1.7,4.9v7.8c0,1-0.8,1.7-1.8,1.7c-1.1,0-1.8-0.7-1.8-1.5v-0.6c-1.1,1.3-2.7,2.3-5.2,2.3
			C89,39.4,86.4,37.7,86.4,34.5z M97.3,33.4v-1.1c-0.9-0.4-2.2-0.6-3.6-0.6c-2.4,0-3.7,1-3.7,2.7v0.1c0,1.5,1.4,2.4,3.1,2.4
			C95.4,36.8,97.3,35.4,97.3,33.4z"/>
		<path fill="#FFFFFF" d="M104.5,24.8c0-1,0.8-1.8,1.8-1.8c1,0,1.8,0.8,1.8,1.8v1.6c0.8-2,2.4-3.5,4-3.5c1.1,0,1.8,0.8,1.8,1.8
			c0,1-0.6,1.6-1.4,1.7c-2.6,0.5-4.4,2.4-4.4,6.2v4.7c0,1-0.8,1.8-1.8,1.8c-1,0-1.8-0.8-1.8-1.8V24.8z"/>
		<path fill="#FFFFFF" d="M116.7,42.6c-0.6-0.2-1-0.8-1-1.4c0-0.8,0.7-1.5,1.5-1.5c0.3,0,0.5,0.1,0.7,0.2c1.4,0.8,3,1.3,4.9,1.3
			c3.3,0,5-1.7,5-4.9v-1.2c-1.3,1.7-3,2.9-5.6,2.9c-3.7,0-7.2-2.8-7.2-7.4v-0.1c0-4.7,3.5-7.5,7.2-7.5c2.7,0,4.3,1.2,5.6,2.7v-0.8
			c0-1,0.8-1.8,1.8-1.8c1,0,1.8,0.8,1.8,1.8v11c0,2.7-0.7,4.7-2,6c-1.4,1.4-3.7,2.1-6.5,2.1C120.6,44,118.7,43.5,116.7,42.6z
			 M127.9,30.4L127.9,30.4c0-2.7-2.1-4.4-4.7-4.4c-2.5,0-4.5,1.7-4.5,4.4v0.1c0,2.6,2,4.4,4.5,4.4C125.7,34.7,127.9,33,127.9,30.4z"
			/>
		<path fill="#FFFFFF" d="M142.7,39.5c-4.6,0-8.2-3.3-8.2-8.3v-0.1c0-4.6,3.2-8.3,7.8-8.3c5.1,0,7.6,4.2,7.6,7.8
			c0,1-0.8,1.7-1.7,1.7h-10c0.4,2.6,2.2,4,4.6,4c1.5,0,2.7-0.5,3.8-1.4c0.3-0.2,0.5-0.3,0.9-0.3c0.8,0,1.4,0.6,1.4,1.5
			c0,0.5-0.2,0.8-0.5,1.1C146.9,38.7,145.1,39.5,142.7,39.5z M146.3,30c-0.2-2.4-1.6-4.2-4-4.2c-2.2,0-3.8,1.7-4.1,4.2H146.3z"/>
		<path fill="#FFFFFF" d="M153.7,34.7v-8.4h-0.6c-0.9,0-1.6-0.7-1.6-1.6c0-0.9,0.7-1.6,1.6-1.6h0.6v-2.7c0-1,0.8-1.8,1.8-1.8
			c1,0,1.8,0.8,1.8,1.8v2.7h2.9c0.9,0,1.6,0.7,1.6,1.6c0,0.9-0.7,1.6-1.6,1.6h-2.9v7.8c0,1.4,0.7,2,2,2c0.4,0,0.8-0.1,0.9-0.1
			c0.8,0,1.5,0.7,1.5,1.5c0,0.7-0.5,1.2-1,1.4c-0.8,0.3-1.5,0.4-2.5,0.4C155.6,39.4,153.7,38.2,153.7,34.7z"/>
		<path fill="#FFFFFF" d="M179.6,37.9l-7.4-17.4c-0.1-0.3-0.2-0.5-0.2-0.9c0-1,0.8-1.8,1.9-1.8c1,0,1.6,0.5,1.9,1.3l6.1,15.2
			l6.2-15.3c0.2-0.6,0.9-1.2,1.8-1.2c1,0,1.8,0.8,1.8,1.8c0,0.3-0.1,0.6-0.2,0.8L184,37.9c-0.4,0.9-1.1,1.5-2.1,1.5h-0.2
			C180.6,39.4,180,38.8,179.6,37.9z"/>
		<path fill="#FFFFFF" d="M191.8,34.5L191.8,34.5c0-3.5,2.7-5.2,6.6-5.2c1.8,0,3,0.3,4.3,0.7v-0.4c0-2.3-1.4-3.5-3.9-3.5
			c-1.4,0-2.5,0.2-3.5,0.6c-0.2,0.1-0.4,0.1-0.6,0.1c-0.8,0-1.5-0.7-1.5-1.5c0-0.7,0.5-1.2,1-1.4c1.5-0.6,3-0.9,5.1-0.9
			c2.4,0,4.2,0.6,5.3,1.8c1.2,1.1,1.7,2.8,1.7,4.9v7.8c0,1-0.8,1.7-1.8,1.7c-1.1,0-1.8-0.7-1.8-1.5v-0.6c-1.1,1.3-2.7,2.3-5.2,2.3
			C194.5,39.4,191.8,37.7,191.8,34.5z M202.7,33.4v-1.1c-0.9-0.4-2.2-0.6-3.6-0.6c-2.4,0-3.7,1-3.7,2.7v0.1c0,1.5,1.4,2.4,3.1,2.4
			C200.9,36.8,202.7,35.4,202.7,33.4z"/>
		<path fill="#FFFFFF" d="M210.1,18.8c0-1,0.8-1.8,1.8-1.8c1,0,1.8,0.8,1.8,1.8v18.7c0,1-0.8,1.8-1.8,1.8c-1,0-1.8-0.8-1.8-1.8V18.8
			z"/>
		<path fill="#FFFFFF" d="M217.8,18.9c0-1.1,0.9-1.8,2.1-1.8c1.2,0,2.1,0.7,2.1,1.8v0.2c0,1.1-0.9,1.8-2.1,1.8
			c-1.2,0-2.1-0.7-2.1-1.8V18.9z M218.1,24.8c0-1,0.8-1.8,1.8-1.8c1,0,1.8,0.8,1.8,1.8v12.6c0,1-0.8,1.8-1.8,1.8
			c-1,0-1.8-0.8-1.8-1.8V24.8z"/>
		<path fill="#FFFFFF" d="M241.5,37.4c0,1-0.8,1.8-1.8,1.8c-1,0-1.8-0.8-1.8-1.8v-1c-1.2,1.7-2.8,3-5.4,3c-3.7,0-7.4-3-7.4-8.3v-0.1
			c0-5.3,3.6-8.3,7.4-8.3c2.6,0,4.3,1.3,5.4,2.8v-6.9c0-1,0.8-1.8,1.8-1.8c1,0,1.8,0.8,1.8,1.8V37.4z M228.7,31.1L228.7,31.1
			c0,3.1,2.1,5.2,4.6,5.2c2.4,0,4.6-2,4.6-5.1v-0.1c0-3.1-2.2-5.1-4.6-5.1C230.8,26,228.7,28,228.7,31.1z"/>
		<path fill="#FFFFFF" d="M244.3,34.5L244.3,34.5c0-3.5,2.7-5.2,6.6-5.2c1.8,0,3,0.3,4.3,0.7v-0.4c0-2.3-1.4-3.5-3.9-3.5
			c-1.4,0-2.5,0.2-3.5,0.6c-0.2,0.1-0.4,0.1-0.6,0.1c-0.8,0-1.5-0.7-1.5-1.5c0-0.7,0.5-1.2,1-1.4c1.5-0.6,3-0.9,5.1-0.9
			c2.4,0,4.2,0.6,5.3,1.8c1.2,1.1,1.7,2.8,1.7,4.9v7.8c0,1-0.8,1.7-1.8,1.7c-1.1,0-1.8-0.7-1.8-1.5v-0.6c-1.1,1.3-2.7,2.3-5.2,2.3
			C247,39.4,244.3,37.7,244.3,34.5z M255.2,33.4v-1.1c-0.9-0.4-2.2-0.6-3.6-0.6c-2.4,0-3.7,1-3.7,2.7v0.1c0,1.5,1.4,2.4,3.1,2.4
			C253.4,36.8,255.2,35.4,255.2,33.4z"/>
		<path fill="#FFFFFF" d="M263,34.7v-8.4h-0.6c-0.9,0-1.6-0.7-1.6-1.6c0-0.9,0.7-1.6,1.6-1.6h0.6v-2.7c0-1,0.8-1.8,1.8-1.8
			c1,0,1.8,0.8,1.8,1.8v2.7h2.9c0.9,0,1.6,0.7,1.6,1.6c0,0.9-0.7,1.6-1.6,1.6h-2.9v7.8c0,1.4,0.7,2,2,2c0.4,0,0.8-0.1,0.9-0.1
			c0.8,0,1.5,0.7,1.5,1.5c0,0.7-0.5,1.2-1,1.4c-0.8,0.3-1.5,0.4-2.5,0.4C264.9,39.4,263,38.2,263,34.7z"/>
		<path fill="#FFFFFF" d="M273.9,18.9c0-1.1,0.9-1.8,2.1-1.8c1.2,0,2.1,0.7,2.1,1.8v0.2c0,1.1-0.9,1.8-2.1,1.8
			c-1.2,0-2.1-0.7-2.1-1.8V18.9z M274.2,24.8c0-1,0.8-1.8,1.8-1.8c1,0,1.8,0.8,1.8,1.8v12.6c0,1-0.8,1.8-1.8,1.8
			c-1,0-1.8-0.8-1.8-1.8V24.8z"/>
		<path fill="#FFFFFF" d="M281.1,31.2L281.1,31.2c0-4.6,3.6-8.4,8.5-8.4c4.9,0,8.5,3.7,8.5,8.3v0.1c0,4.5-3.6,8.3-8.5,8.3
			C284.7,39.5,281.1,35.8,281.1,31.2z M294.4,31.2L294.4,31.2c0-2.9-2-5.2-4.9-5.2c-2.9,0-4.8,2.3-4.8,5.1v0.1c0,2.8,2,5.1,4.9,5.1
			C292.5,36.3,294.4,34,294.4,31.2z"/>
		<path fill="#FFFFFF" d="M301.1,24.8c0-1,0.8-1.8,1.8-1.8c1,0,1.8,0.8,1.8,1.8v0.8c1-1.5,2.5-2.8,5-2.8c3.6,0,5.7,2.4,5.7,6.1v8.5
			c0,1-0.8,1.8-1.8,1.8c-1,0-1.8-0.8-1.8-1.8v-7.4c0-2.5-1.2-3.9-3.4-3.9c-2.1,0-3.6,1.5-3.6,3.9v7.3c0,1-0.8,1.8-1.8,1.8
			c-1,0-1.8-0.8-1.8-1.8V24.8z"/>
		<path fill="#FFFFFF" d="M327.9,19.9c0-1.1,0.8-1.9,1.9-1.9h6.5c4.9,0,8,2.8,8,7.1v0.1c0,4.7-3.8,7.2-8.4,7.2h-4.2v5.1
			c0,1-0.8,1.8-1.8,1.8c-1.1,0-1.9-0.8-1.9-1.8V19.9z M335.9,29c2.8,0,4.6-1.6,4.6-3.8v-0.1c0-2.5-1.8-3.8-4.6-3.8h-4.3V29H335.9z"
			/>
		<path fill="#FFFFFF" d="M347.2,18.8c0-1,0.8-1.8,1.8-1.8c1,0,1.8,0.8,1.8,1.8v18.7c0,1-0.8,1.8-1.8,1.8c-1,0-1.8-0.8-1.8-1.8V18.8
			z"/>
		<path fill="#FFFFFF" d="M353.9,34.5L353.9,34.5c0-3.5,2.7-5.2,6.6-5.2c1.8,0,3,0.3,4.3,0.7v-0.4c0-2.3-1.4-3.5-3.9-3.5
			c-1.4,0-2.5,0.2-3.5,0.6c-0.2,0.1-0.4,0.1-0.6,0.1c-0.8,0-1.5-0.7-1.5-1.5c0-0.7,0.5-1.2,1-1.4c1.5-0.6,3-0.9,5.1-0.9
			c2.4,0,4.2,0.6,5.3,1.8c1.2,1.1,1.7,2.8,1.7,4.9v7.8c0,1-0.8,1.7-1.8,1.7c-1.1,0-1.8-0.7-1.8-1.5v-0.6c-1.1,1.3-2.7,2.3-5.2,2.3
			C356.5,39.4,353.9,37.7,353.9,34.5z M364.8,33.4v-1.1c-0.9-0.4-2.2-0.6-3.6-0.6c-2.4,0-3.7,1-3.7,2.7v0.1c0,1.5,1.4,2.4,3.1,2.4
			C363,36.8,364.8,35.4,364.8,33.4z"/>
		<path fill="#FFFFFF" d="M372.6,34.7v-8.4H372c-0.9,0-1.6-0.7-1.6-1.6c0-0.9,0.7-1.6,1.6-1.6h0.6v-2.7c0-1,0.8-1.8,1.8-1.8
			c1,0,1.8,0.8,1.8,1.8v2.7h2.9c0.9,0,1.6,0.7,1.6,1.6c0,0.9-0.7,1.6-1.6,1.6h-2.9v7.8c0,1.4,0.7,2,2,2c0.4,0,0.8-0.1,0.9-0.1
			c0.8,0,1.5,0.7,1.5,1.5c0,0.7-0.5,1.2-1,1.4c-0.8,0.3-1.5,0.4-2.5,0.4C374.5,39.4,372.6,38.2,372.6,34.7z"/>
		<path fill="#FFFFFF" d="M384.4,26.3h-0.6c-0.8,0-1.5-0.7-1.5-1.5c0-0.8,0.7-1.5,1.5-1.5h0.6v-1.2c0-1.7,0.5-3.1,1.3-3.9
			c0.8-0.8,2-1.3,3.6-1.3c0.7,0,1.3,0.1,1.8,0.2c0.7,0.1,1.3,0.7,1.3,1.5c0,0.8-0.7,1.5-1.5,1.5c-0.2,0-0.5-0.1-0.8-0.1
			c-1.4,0-2.1,0.8-2.1,2.4v0.9h2.8c0.9,0,1.5,0.7,1.5,1.5c0,0.8-0.7,1.5-1.5,1.5H388v11.1c0,1-0.8,1.8-1.8,1.8c-1,0-1.8-0.8-1.8-1.8
			V26.3z"/>
		<path fill="#FFFFFF" d="M393,31.2L393,31.2c0-4.6,3.6-8.4,8.5-8.4c4.9,0,8.5,3.7,8.5,8.3v0.1c0,4.5-3.6,8.3-8.5,8.3
			C396.6,39.5,393,35.8,393,31.2z M406.4,31.2L406.4,31.2c0-2.9-2-5.2-4.9-5.2c-2.9,0-4.8,2.3-4.8,5.1v0.1c0,2.8,2,5.1,4.9,5.1
			C404.5,36.3,406.4,34,406.4,31.2z"/>
		<path fill="#FFFFFF" d="M413.1,24.8c0-1,0.8-1.8,1.8-1.8c1,0,1.8,0.8,1.8,1.8v1.6c0.8-2,2.4-3.5,4-3.5c1.1,0,1.8,0.8,1.8,1.8
			c0,1-0.6,1.6-1.4,1.7c-2.6,0.5-4.4,2.4-4.4,6.2v4.7c0,1-0.8,1.8-1.8,1.8c-1,0-1.8-0.8-1.8-1.8V24.8z"/>
		<path fill="#FFFFFF" d="M424.8,24.8c0-1,0.8-1.8,1.8-1.8c1,0,1.8,0.8,1.8,1.8v0.8c1-1.4,2.4-2.7,4.9-2.7c2.3,0,3.9,1.1,4.8,2.8
			c1.3-1.7,3-2.8,5.4-2.8c3.5,0,5.6,2.2,5.6,6.1v8.5c0,1-0.8,1.8-1.8,1.8c-1,0-1.8-0.8-1.8-1.8v-7.4c0-2.5-1.2-3.9-3.2-3.9
			c-2,0-3.4,1.4-3.4,3.9v7.3c0,1-0.8,1.8-1.8,1.8c-1,0-1.8-0.8-1.8-1.8V30c0-2.5-1.2-3.9-3.2-3.9s-3.4,1.5-3.4,3.9v7.3
			c0,1-0.8,1.8-1.8,1.8c-1,0-1.8-0.8-1.8-1.8V24.8z"/>
	</g>
</svg>
