<?xml version="1.0" encoding="utf-8"?>
<!-- Generator: Adobe Illustrator 18.1.1, SVG Export Plug-In . SVG Version: 6.00 Build 0)  -->
<svg version="1.1" id="Layer_1" xmlns="http://www.w3.org/2000/svg" xmlns:xlink="http://www.w3.org/1999/xlink" x="0px" y="0px"
	 viewBox="0 0 130 30" enable-background="new 0 0 130 30" xml:space="preserve">
<g>
	<g>
		<path fill="#FFFFFF" d="M48.3,12.9c0-0.5,0.4-0.9,0.9-0.9c0.5,0,0.9,0.4,0.9,0.9v0.5c0.6-0.8,1.4-1.4,2.7-1.4c1.8,0,3.6,1.4,3.6,4
			v0c0,2.6-1.8,4-3.6,4c-1.3,0-2.1-0.6-2.7-1.4v2.7c0,0.5-0.4,0.9-0.9,0.9c-0.5,0-0.9-0.4-0.9-0.9V12.9z M54.5,16L54.5,16
			c0-1.5-1-2.5-2.2-2.5s-2.3,1-2.3,2.5v0c0,1.5,1.1,2.5,2.3,2.5C53.5,18.4,54.5,17.5,54.5,16z"/>
		<path fill="#FFFFFF" d="M61.3,20c-2.3,0-4-1.6-4-4v0c0-2.2,1.6-4,3.8-4c2.5,0,3.7,2,3.7,3.8c0,0.5-0.4,0.8-0.8,0.8h-4.9
			c0.2,1.3,1.1,2,2.2,2c0.8,0,1.3-0.3,1.8-0.7c0.1-0.1,0.3-0.2,0.5-0.2c0.4,0,0.7,0.3,0.7,0.7c0,0.2-0.1,0.4-0.2,0.5
			C63.4,19.6,62.5,20,61.3,20z M63.1,15.4c-0.1-1.1-0.8-2-2-2c-1.1,0-1.9,0.8-2,2H63.1z"/>
		<path fill="#FFFFFF" d="M66,12.9c0-0.5,0.4-0.9,0.9-0.9c0.5,0,0.9,0.4,0.9,0.9v0.4c0.5-0.7,1.2-1.3,2.4-1.3c1.8,0,2.8,1.2,2.8,2.9
			V19c0,0.5-0.4,0.9-0.9,0.9c-0.5,0-0.9-0.4-0.9-0.9v-3.6c0-1.2-0.6-1.9-1.7-1.9c-1,0-1.8,0.7-1.8,1.9V19c0,0.5-0.4,0.9-0.9,0.9
			c-0.5,0-0.9-0.4-0.9-0.9V12.9z"/>
		<path fill="#FFFFFF" d="M81.9,11.3h-2.5c-0.5,0-0.8-0.4-0.8-0.8c0-0.5,0.4-0.8,0.8-0.8h6.9c0.5,0,0.8,0.4,0.8,0.8
			c0,0.5-0.4,0.8-0.8,0.8h-2.5V19c0,0.5-0.4,0.9-0.9,0.9c-0.5,0-0.9-0.4-0.9-0.9V11.3z"/>
		<path fill="#FFFFFF" d="M86.5,17.6L86.5,17.6c0-1.7,1.3-2.5,3.2-2.5c0.9,0,1.5,0.1,2.1,0.3v-0.2c0-1.1-0.7-1.7-1.9-1.7
			c-0.7,0-1.2,0.1-1.7,0.3c-0.1,0-0.2,0-0.3,0c-0.4,0-0.8-0.3-0.8-0.7c0-0.3,0.2-0.6,0.5-0.7c0.7-0.3,1.5-0.5,2.5-0.5
			c1.2,0,2,0.3,2.6,0.9c0.6,0.6,0.8,1.4,0.8,2.4V19c0,0.5-0.4,0.8-0.9,0.8c-0.5,0-0.9-0.4-0.9-0.7v-0.3c-0.5,0.6-1.3,1.1-2.5,1.1
			C87.8,20,86.5,19.1,86.5,17.6z M91.9,17v-0.5c-0.5-0.2-1.1-0.3-1.8-0.3c-1.2,0-1.8,0.5-1.8,1.3v0c0,0.7,0.7,1.2,1.5,1.2
			C91,18.7,91.9,18,91.9,17z"/>
		<path fill="#FFFFFF" d="M95.1,12.9c0-0.5,0.4-0.9,0.9-0.9c0.5,0,0.9,0.4,0.9,0.9v0.8c0.4-1,1.2-1.7,2-1.7c0.6,0,0.9,0.4,0.9,0.9
			c0,0.5-0.3,0.8-0.7,0.8c-1.3,0.2-2.1,1.2-2.1,3V19c0,0.5-0.4,0.9-0.9,0.9c-0.5,0-0.9-0.4-0.9-0.9V12.9z"/>
		<path fill="#FFFFFF" d="M101.2,21.5c-0.3-0.1-0.5-0.4-0.5-0.7c0-0.4,0.3-0.7,0.8-0.7c0.1,0,0.2,0,0.3,0.1c0.7,0.4,1.5,0.6,2.4,0.6
			c1.6,0,2.5-0.8,2.5-2.4v-0.6c-0.6,0.8-1.5,1.4-2.7,1.4c-1.8,0-3.5-1.3-3.5-3.6v0c0-2.3,1.7-3.6,3.5-3.6c1.3,0,2.1,0.6,2.7,1.3
			v-0.4c0-0.5,0.4-0.9,0.9-0.9c0.5,0,0.9,0.4,0.9,0.9v5.3c0,1.3-0.3,2.3-1,2.9c-0.7,0.7-1.8,1-3.2,1
			C103.1,22.2,102.2,21.9,101.2,21.5z M106.7,15.6L106.7,15.6c0-1.3-1-2.1-2.3-2.1c-1.2,0-2.2,0.8-2.2,2.1v0c0,1.3,1,2.1,2.2,2.1
			C105.6,17.7,106.7,16.8,106.7,15.6z"/>
		<path fill="#FFFFFF" d="M113.6,20c-2.3,0-4-1.6-4-4v0c0-2.2,1.6-4,3.8-4c2.5,0,3.7,2,3.7,3.8c0,0.5-0.4,0.8-0.8,0.8h-4.9
			c0.2,1.3,1.1,2,2.2,2c0.8,0,1.3-0.3,1.8-0.7c0.1-0.1,0.3-0.2,0.5-0.2c0.4,0,0.7,0.3,0.7,0.7c0,0.2-0.1,0.4-0.2,0.5
			C115.7,19.6,114.8,20,113.6,20z M115.3,15.4c-0.1-1.1-0.8-2-2-2c-1.1,0-1.9,0.8-2,2H115.3z"/>
		<path fill="#FFFFFF" d="M118.8,17.7v-4.1h-0.3c-0.4,0-0.8-0.3-0.8-0.8c0-0.4,0.3-0.8,0.8-0.8h0.3v-1.3c0-0.5,0.4-0.9,0.9-0.9
			c0.5,0,0.9,0.4,0.9,0.9v1.3h1.4c0.4,0,0.8,0.3,0.8,0.8c0,0.4-0.4,0.8-0.8,0.8h-1.4v3.8c0,0.7,0.4,1,1,1c0.2,0,0.4,0,0.4,0
			c0.4,0,0.8,0.3,0.8,0.7c0,0.3-0.2,0.6-0.5,0.7c-0.4,0.1-0.8,0.2-1.2,0.2C119.7,19.9,118.8,19.4,118.8,17.7z"/>
		<path fill="#FFFFFF" d="M124.1,19c-0.2-0.1-0.3-0.3-0.3-0.6c0-0.4,0.3-0.7,0.7-0.7c0.1,0,0.3,0,0.4,0.1c0.8,0.5,1.5,0.7,2.2,0.7
			c0.8,0,1.2-0.3,1.2-0.8v0c0-0.6-0.8-0.8-1.7-1.1c-1.2-0.3-2.4-0.8-2.4-2.3v0c0-1.5,1.2-2.3,2.8-2.3c0.8,0,1.7,0.2,2.5,0.6
			c0.3,0.1,0.4,0.4,0.4,0.7c0,0.4-0.3,0.7-0.7,0.7c-0.1,0-0.2,0-0.4-0.1c-0.6-0.3-1.3-0.5-1.8-0.5c-0.7,0-1.1,0.3-1.1,0.8v0
			c0,0.6,0.8,0.8,1.8,1.1c1.1,0.4,2.4,0.9,2.4,2.2v0c0,1.6-1.3,2.4-2.9,2.4C126.1,19.9,125,19.6,124.1,19z"/>
	</g>
	<path fill="#FFFFFF" d="M36.2,14.7L36.2,14.7c0-2.9,2.2-5.3,5.4-5.3s5.4,2.4,5.4,5.3v0c0,2.9-2.2,5.3-5.4,5.3
		C38.5,20,36.2,17.6,36.2,14.7z M45.1,14.7L45.1,14.7c0-2-1.5-3.7-3.5-3.7c-2.1,0-3.5,1.6-3.5,3.6v0c0,2,1.5,3.6,3.5,3.6
		C43.7,18.3,45.1,16.7,45.1,14.7z"/>
</g>
<path fill="#FFFFFF" d="M3.2,22.1c-0.9,0-1.7-0.4-2.3-0.9s-1-1.4-1-2.3c0-1.8,1.5-3.2,3.3-3.2h11.1v0l7.7,0v6.4L3.2,22.1z"/>
<path fill="#FFFFFF" d="M14.3,23.6v3.2c0,1.8-1.5,3.2-3.3,3.2c-0.9,0-1.7-0.4-2.3-0.9c-0.6-0.6-1-1.4-1-2.3v-3.2H14.3z"/>
<path fill="#FFFFFF" d="M15.6,6.4V3.2C15.6,1.4,17,0,18.8,0c1.8,0,3.3,1.4,3.3,3.2v3.2H15.6z"/>
<path fill="#FFFFFF" d="M7.8,7.9h18.8c1.8,0,3.2,1.4,3.3,3.2c0,1.8-1.5,3.2-3.3,3.2l-9.3,0l-9.5,0V7.9z"/>
</svg>
