<?xml version="1.0" encoding="utf-8"?>
<svg version="1.1" xmlns="http://www.w3.org/2000/svg" xmlns:xlink="http://www.w3.org/1999/xlink" x="0px" y="0px"
	 viewBox="0 0 390 60" enable-background="new 0 0 390 60" xml:space="preserve">
<g id="Layer_1">
	<g>
		<path fill="#FFFFFF" d="M6.4,44.3c-1.8,0-3.4-0.7-4.5-1.9S0,39.6,0,37.9c0-3.5,2.9-6.4,6.4-6.4h21.9v0l15.3,0v12.8L6.4,44.3z"/>
		<path fill="#FFFFFF" d="M28.2,47.2v6.4c0,3.5-2.9,6.4-6.4,6.4c-1.8,0-3.4-0.7-4.5-1.9c-1.2-1.2-1.9-2.8-1.9-4.5v-6.4H28.2z"/>
		<path fill="#FFFFFF" d="M30.7,12.8V6.4c0-3.5,2.9-6.4,6.4-6.4c3.5,0,6.4,2.9,6.4,6.4v6.4H30.7z"/>
		<path fill="#FFFFFF" d="M15.4,15.7h37.2c3.5,0,6.4,2.9,6.4,6.4c0,3.5-2.9,6.4-6.4,6.4l-18.3,0l-18.9,0V15.7z"/>
	</g>
	<g>
		<path fill="#B2DEF9" d="M274.7,21c0-1,0.8-1.8,1.8-1.8h6.1c4.6,0,7.5,2.6,7.5,6.6v0.1c0,4.4-3.6,6.8-7.9,6.8h-3.9v4.8
			c0,1-0.8,1.7-1.7,1.7c-1,0-1.8-0.8-1.8-1.7V21z M282.3,29.5c2.6,0,4.3-1.5,4.3-3.5v-0.1c0-2.3-1.7-3.5-4.3-3.5h-4.1v7.1H282.3z"/>
		<path fill="#B2DEF9" d="M292.8,19.9c0-0.9,0.7-1.7,1.7-1.7c1,0,1.7,0.8,1.7,1.7v17.6c0,1-0.8,1.7-1.7,1.7c-0.9,0-1.7-0.7-1.7-1.7
			V19.9z"/>
		<path fill="#B2DEF9" d="M299.1,34.8L299.1,34.8c0-3.3,2.5-4.9,6.2-4.9c1.7,0,2.9,0.3,4,0.6v-0.4c0-2.1-1.3-3.3-3.7-3.3
			c-1.3,0-2.4,0.2-3.3,0.6c-0.2,0.1-0.4,0.1-0.5,0.1c-0.8,0-1.4-0.6-1.4-1.4c0-0.6,0.4-1.2,0.9-1.4c1.4-0.5,2.9-0.9,4.8-0.9
			c2.2,0,3.9,0.6,5,1.7c1.1,1.1,1.6,2.7,1.6,4.6v7.4c0,0.9-0.7,1.6-1.7,1.6c-1,0-1.7-0.7-1.7-1.4v-0.6c-1,1.2-2.6,2.2-4.9,2.2
			C301.6,39.4,299.1,37.8,299.1,34.8z M309.4,33.7v-1c-0.9-0.3-2-0.6-3.4-0.6c-2.2,0-3.5,0.9-3.5,2.5v0.1c0,1.4,1.3,2.3,2.9,2.3
			C307.6,36.9,309.4,35.6,309.4,33.7z"/>
		<path fill="#B2DEF9" d="M316.7,34.9v-7.9h-0.6c-0.8,0-1.5-0.7-1.5-1.5s0.7-1.5,1.5-1.5h0.6v-2.5c0-0.9,0.8-1.7,1.7-1.7
			c0.9,0,1.7,0.8,1.7,1.7v2.5h2.7c0.8,0,1.5,0.7,1.5,1.5s-0.7,1.5-1.5,1.5h-2.7v7.3c0,1.3,0.7,1.9,1.8,1.9c0.4,0,0.7-0.1,0.9-0.1
			c0.8,0,1.4,0.6,1.4,1.4c0,0.6-0.4,1.1-0.9,1.3c-0.7,0.3-1.4,0.4-2.4,0.4C318.5,39.3,316.7,38.2,316.7,34.9z"/>
		<path fill="#B2DEF9" d="M327.7,27.1h-0.6c-0.8,0-1.4-0.6-1.4-1.4c0-0.8,0.7-1.4,1.4-1.4h0.6v-1.1c0-1.6,0.4-2.9,1.2-3.7
			s1.9-1.2,3.4-1.2c0.7,0,1.2,0.1,1.7,0.1c0.6,0.1,1.2,0.7,1.2,1.4c0,0.8-0.7,1.4-1.4,1.4c-0.2,0-0.5-0.1-0.7-0.1
			c-1.3,0-2,0.7-2,2.3v0.8h2.7c0.8,0,1.4,0.6,1.4,1.4c0,0.8-0.7,1.4-1.4,1.4h-2.6v10.5c0,0.9-0.8,1.7-1.7,1.7
			c-0.9,0-1.7-0.8-1.7-1.7V27.1z"/>
		<path fill="#B2DEF9" d="M335.9,31.7L335.9,31.7c0-4.3,3.4-7.9,8-7.9c4.6,0,8,3.5,8,7.8v0.1c0,4.2-3.4,7.8-8,7.8
			C339.3,39.4,335.9,35.9,335.9,31.7z M348.4,31.7L348.4,31.7c0-2.7-1.9-4.9-4.6-4.9c-2.7,0-4.5,2.2-4.5,4.8v0.1
			c0,2.6,1.9,4.8,4.6,4.8C346.7,36.4,348.4,34.2,348.4,31.7z"/>
		<path fill="#B2DEF9" d="M354.7,25.7c0-1,0.7-1.7,1.7-1.7c1,0,1.7,0.8,1.7,1.7v1.5c0.8-1.9,2.3-3.3,3.8-3.3c1.1,0,1.7,0.7,1.7,1.7
			c0,0.9-0.6,1.5-1.4,1.6c-2.4,0.4-4.1,2.3-4.1,5.8v4.4c0,0.9-0.8,1.7-1.7,1.7c-0.9,0-1.7-0.7-1.7-1.7V25.7z"/>
		<path fill="#B2DEF9" d="M365.8,25.7c0-1,0.7-1.7,1.7-1.7c1,0,1.7,0.8,1.7,1.7v0.7c1-1.3,2.3-2.6,4.6-2.6c2.2,0,3.7,1,4.5,2.6
			c1.2-1.6,2.8-2.6,5-2.6c3.3,0,5.2,2.1,5.2,5.7v8c0,1-0.7,1.7-1.7,1.7c-1,0-1.7-0.7-1.7-1.7v-6.9c0-2.4-1.1-3.7-3-3.7
			c-1.9,0-3.2,1.3-3.2,3.7v6.9c0,1-0.8,1.7-1.7,1.7c-1,0-1.7-0.7-1.7-1.7v-7c0-2.3-1.1-3.6-3-3.6s-3.2,1.4-3.2,3.7v6.9
			c0,1-0.8,1.7-1.7,1.7c-0.9,0-1.7-0.7-1.7-1.7V25.7z"/>
	</g>
	<g>
		<g>
			<g>
				<path fill="#FFFFFF" d="M97.3,25.6c0-1,0.7-1.7,1.7-1.7c1,0,1.7,0.8,1.7,1.7v0.9c1.1-1.6,2.7-2.8,5.1-2.8c3.5,0,7,2.8,7,7.8v0.1
					c0,5-3.4,7.8-7,7.8c-2.5,0-4.1-1.3-5.1-2.7v5.3c0,1-0.8,1.7-1.7,1.7c-0.9,0-1.7-0.7-1.7-1.7V25.6z M109.4,31.6L109.4,31.6
					c0-3-2-4.9-4.3-4.9s-4.4,1.9-4.4,4.8v0.1c0,2.9,2.1,4.8,4.4,4.8C107.4,36.4,109.4,34.6,109.4,31.6z"/>
				<path fill="#FFFFFF" d="M122.4,39.5c-4.4,0-7.7-3.2-7.7-7.8v-0.1c0-4.3,3-7.8,7.4-7.8c4.8,0,7.2,3.9,7.2,7.4
					c0,1-0.7,1.7-1.6,1.7h-9.4c0.4,2.5,2.1,3.8,4.3,3.8c1.5,0,2.6-0.5,3.6-1.3c0.3-0.2,0.5-0.3,0.9-0.3c0.8,0,1.4,0.6,1.4,1.4
					c0,0.4-0.2,0.8-0.5,1.1C126.5,38.7,124.8,39.5,122.4,39.5z M125.9,30.5c-0.2-2.2-1.5-4-3.8-4c-2.1,0-3.6,1.6-3.9,4H125.9z"/>
				<path fill="#FFFFFF" d="M132.4,25.6c0-1,0.7-1.7,1.7-1.7c1,0,1.7,0.8,1.7,1.7v0.7c1-1.4,2.4-2.6,4.7-2.6c3.4,0,5.4,2.3,5.4,5.8
					v8c0,1-0.7,1.7-1.7,1.7c-1,0-1.7-0.7-1.7-1.7v-7c0-2.3-1.2-3.7-3.2-3.7c-2,0-3.4,1.4-3.4,3.7v6.9c0,1-0.8,1.7-1.7,1.7
					c-0.9,0-1.7-0.7-1.7-1.7V25.6z"/>
				<path fill="#FFFFFF" d="M164.1,22.4h-4.8c-0.9,0-1.6-0.7-1.6-1.6c0-0.9,0.7-1.6,1.6-1.6h13.3c0.9,0,1.6,0.7,1.6,1.6
					c0,0.9-0.7,1.6-1.6,1.6h-4.9v15.1c0,1-0.8,1.7-1.8,1.7c-1,0-1.8-0.8-1.8-1.7V22.4z"/>
				<path fill="#FFFFFF" d="M174,34.8L174,34.8c0-3.3,2.5-4.9,6.2-4.9c1.7,0,2.9,0.3,4,0.6v-0.4c0-2.1-1.3-3.3-3.7-3.3
					c-1.3,0-2.4,0.2-3.3,0.6c-0.2,0.1-0.4,0.1-0.5,0.1c-0.8,0-1.5-0.6-1.5-1.4c0-0.6,0.4-1.2,0.9-1.4c1.4-0.5,2.9-0.9,4.8-0.9
					c2.3,0,3.9,0.6,5,1.7c1.1,1.1,1.6,2.7,1.6,4.6v7.4c0,0.9-0.7,1.7-1.7,1.7c-1,0-1.7-0.7-1.7-1.5v-0.6c-1,1.2-2.6,2.2-4.9,2.2
					C176.5,39.4,174,37.8,174,34.8z M184.3,33.7v-1c-0.9-0.3-2.1-0.6-3.4-0.6c-2.2,0-3.5,0.9-3.5,2.5v0.1c0,1.5,1.3,2.3,2.9,2.3
					C182.6,36.9,184.3,35.6,184.3,33.7z"/>
				<path fill="#FFFFFF" d="M190.6,25.6c0-1,0.7-1.7,1.7-1.7c1,0,1.7,0.8,1.7,1.7v1.5c0.8-1.9,2.3-3.3,3.8-3.3
					c1.1,0,1.7,0.7,1.7,1.7c0,0.9-0.6,1.5-1.4,1.7c-2.5,0.4-4.1,2.3-4.1,5.9v4.4c0,0.9-0.8,1.7-1.7,1.7c-0.9,0-1.7-0.7-1.7-1.7V25.6
					z"/>
				<path fill="#FFFFFF" d="M203.4,42.4c-0.6-0.2-1-0.7-1-1.4c0-0.8,0.7-1.4,1.5-1.4c0.3,0,0.5,0.1,0.6,0.1c1.4,0.8,2.9,1.2,4.6,1.2
					c3.1,0,4.8-1.6,4.8-4.6v-1.2c-1.3,1.6-2.8,2.8-5.3,2.8c-3.5,0-6.8-2.6-6.8-7v-0.1c0-4.4,3.3-7.1,6.8-7.1c2.5,0,4.1,1.2,5.3,2.6
					v-0.7c0-0.9,0.8-1.7,1.7-1.7c1,0,1.7,0.8,1.7,1.7V36c0,2.5-0.7,4.4-1.9,5.7c-1.4,1.4-3.5,2-6.2,2
					C207.1,43.7,205.2,43.3,203.4,42.4z M213.9,30.8L213.9,30.8c0-2.5-2-4.2-4.4-4.2c-2.4,0-4.3,1.7-4.3,4.1v0.1
					c0,2.5,1.9,4.1,4.3,4.1C211.9,35,213.9,33.3,213.9,30.8z"/>
				<path fill="#FFFFFF" d="M227.2,39.5c-4.4,0-7.7-3.2-7.7-7.8v-0.1c0-4.3,3-7.8,7.4-7.8c4.8,0,7.2,3.9,7.2,7.4
					c0,1-0.7,1.7-1.6,1.7H223c0.4,2.5,2.1,3.8,4.3,3.8c1.5,0,2.6-0.5,3.6-1.3c0.3-0.2,0.5-0.3,0.9-0.3c0.8,0,1.4,0.6,1.4,1.4
					c0,0.4-0.2,0.8-0.5,1.1C231.3,38.7,229.6,39.5,227.2,39.5z M230.7,30.5c-0.2-2.2-1.5-4-3.8-4c-2.1,0-3.6,1.6-3.9,4H230.7z"/>
				<path fill="#FFFFFF" d="M238.3,34.9V27h-0.6c-0.8,0-1.5-0.7-1.5-1.5c0-0.8,0.7-1.5,1.5-1.5h0.6v-2.6c0-0.9,0.8-1.7,1.7-1.7
					c0.9,0,1.7,0.8,1.7,1.7v2.6h2.7c0.8,0,1.5,0.7,1.5,1.5c0,0.8-0.7,1.5-1.5,1.5h-2.7v7.4c0,1.3,0.7,1.9,1.9,1.9
					c0.4,0,0.7-0.1,0.9-0.1c0.8,0,1.5,0.6,1.5,1.4c0,0.6-0.4,1.1-0.9,1.3c-0.7,0.3-1.5,0.4-2.4,0.4
					C240.1,39.4,238.3,38.3,238.3,34.9z"/>
				<path fill="#FFFFFF" d="M248.6,37.6c-0.4-0.2-0.7-0.6-0.7-1.2c0-0.8,0.6-1.4,1.4-1.4c0.3,0,0.5,0.1,0.7,0.2c1.5,1,3,1.5,4.3,1.5
					c1.5,0,2.3-0.6,2.3-1.6V35c0-1.2-1.6-1.6-3.4-2.1c-2.2-0.6-4.7-1.5-4.7-4.4v-0.1c0-2.8,2.4-4.6,5.4-4.6c1.6,0,3.3,0.5,4.7,1.2
					c0.5,0.3,0.8,0.7,0.8,1.3c0,0.8-0.6,1.4-1.4,1.4c-0.3,0-0.5-0.1-0.7-0.2c-1.2-0.6-2.5-1-3.5-1c-1.3,0-2.1,0.6-2.1,1.5v0.1
					c0,1.1,1.6,1.6,3.4,2.1c2.2,0.7,4.7,1.7,4.7,4.4v0.1c0,3.2-2.5,4.7-5.6,4.7C252.4,39.4,250.4,38.8,248.6,37.6z"/>
			</g>
			<path fill="#FFFFFF" d="M73,29.2L73,29.2c0-5.7,4.3-10.4,10.5-10.4c6.1,0,10.4,4.6,10.4,10.3v0.1c0,5.6-4.3,10.3-10.5,10.3
				C77.3,39.5,73,34.8,73,29.2z M90.2,29.2L90.2,29.2c0-3.9-2.8-7.2-6.8-7.2c-4,0-6.7,3.2-6.7,7v0.1c0,3.9,2.8,7.1,6.8,7.1
				C87.5,36.2,90.2,33.1,90.2,29.2z"/>
		</g>
	</g>
	<g>
		<path fill="#FFFFFF" d="M6.4,44.3c-1.8,0-3.4-0.7-4.5-1.9S0,39.6,0,37.9c0-3.5,2.9-6.4,6.4-6.4h21.9v0l15.3,0v12.8L6.4,44.3z"/>
		<path fill="#FFFFFF" d="M28.2,47.2v6.4c0,3.5-2.9,6.4-6.4,6.4c-1.8,0-3.4-0.7-4.5-1.9c-1.2-1.2-1.9-2.8-1.9-4.5v-6.4H28.2z"/>
		<path fill="#FFFFFF" d="M30.7,12.8V6.4c0-3.5,2.9-6.4,6.4-6.4c3.5,0,6.4,2.9,6.4,6.4v6.4H30.7z"/>
		<path fill="#FFFFFF" d="M15.4,15.7h37.2c3.5,0,6.4,2.9,6.4,6.4c0,3.5-2.9,6.4-6.4,6.4l-18.3,0l-18.9,0V15.7z"/>
	</g>
</g>
</svg>
